<svg width="92" height="109" viewBox="0 0 92 109" fill="none" xmlns="http://www.w3.org/2000/svg">
<path d="M41.456 87V21.5455H53.0256V46.027H53.505C54.1016 44.8338 54.9432 43.566 56.0298 42.2237C57.1165 40.8601 58.5866 39.6989 60.4403 38.7401C62.294 37.7599 64.6591 37.2699 67.5355 37.2699C71.3281 37.2699 74.7479 38.2393 77.7947 40.1783C80.8629 42.0959 83.2919 44.9403 85.0817 48.7116C86.8928 52.4616 87.7983 57.0639 87.7983 62.5185C87.7983 67.9091 86.9141 72.4901 85.1456 76.2614C83.3771 80.0327 80.9695 82.9091 77.9226 84.8906C74.8757 86.8722 71.424 87.8629 67.5675 87.8629C64.755 87.8629 62.4219 87.3942 60.5682 86.4567C58.7145 85.5192 57.223 84.3899 56.0938 83.0689C54.9858 81.7266 54.1229 80.4588 53.505 79.2656H52.8338V87H41.456ZM52.8018 62.4545C52.8018 65.6293 53.2493 68.4098 54.1442 70.7962C55.0604 73.1825 56.3707 75.0469 58.0753 76.3892C59.8011 77.7102 61.8892 78.3707 64.3395 78.3707C66.8963 78.3707 69.0376 77.6889 70.7635 76.3253C72.4893 74.9403 73.7891 73.0547 74.6626 70.6683C75.5575 68.2607 76.005 65.5227 76.005 62.4545C76.005 59.4077 75.5682 56.7017 74.6946 54.3366C73.821 51.9716 72.5213 50.1179 70.7955 48.7756C69.0696 47.4332 66.9176 46.7621 64.3395 46.7621C61.8679 46.7621 59.7692 47.4119 58.0433 48.7116C56.3175 50.0114 55.0071 51.8331 54.1122 54.1768C53.2386 56.5206 52.8018 59.2798 52.8018 62.4545Z" fill="#144EA4"/>
<path d="M24.1619 87.8629C20.3054 87.8629 16.8537 86.8722 13.8068 84.8906C10.7599 82.9091 8.35227 80.0327 6.58381 76.2614C4.81534 72.4901 3.93111 67.9091 3.93111 62.5185C3.93111 57.0639 4.82599 52.4616 6.61577 48.7116C8.42685 44.9403 10.8665 42.0959 13.9347 40.1783C17.0028 38.2393 20.4226 37.2699 24.1939 37.2699C27.0703 37.2699 29.4354 37.7599 31.2891 38.7401C33.1428 39.6989 34.6129 40.8601 35.6996 42.2237C36.7862 43.566 37.6278 44.8338 38.2244 46.027H38.7038V21.5455H50.3054V87H38.9276V79.2656H38.2244C37.6278 80.4588 36.7649 81.7266 35.6357 83.0689C34.5064 84.3899 33.0149 85.5192 31.1612 86.4567C29.3075 87.3942 26.9744 87.8629 24.1619 87.8629ZM27.3899 78.3707C29.8402 78.3707 31.9283 77.7102 33.6541 76.3892C35.38 75.0469 36.6903 73.1825 37.5852 70.7962C38.4801 68.4098 38.9276 65.6293 38.9276 62.4545C38.9276 59.2798 38.4801 56.5206 37.5852 54.1768C36.7116 51.8331 35.4119 50.0114 33.6861 48.7116C31.9815 47.4119 29.8828 46.7621 27.3899 46.7621C24.8118 46.7621 22.6598 47.4332 20.9339 48.7756C19.2081 50.1179 17.9084 51.9716 17.0348 54.3366C16.1612 56.7017 15.7244 59.4077 15.7244 62.4545C15.7244 65.5227 16.1612 68.2607 17.0348 70.6683C17.9297 73.0547 19.2401 74.9403 20.9659 76.3253C22.7131 77.6889 24.8544 78.3707 27.3899 78.3707Z" fill="#DC6B2B"/>
</svg>
