<svg width="128" height="128" viewBox="0 0 128 128" fill="none" xmlns="http://www.w3.org/2000/svg">
<rect width="128" height="128" rx="64" fill="#506087"/>
<path d="M98.3023 30.3L105.127 30.75C106.077 30.75 106.452 31.275 106.252 32.325C105.852 33.125 105.552 34.175 105.352 35.475C105.152 36.725 105.002 38.1 104.902 39.6C104.302 44.05 103.852 47.95 103.552 51.3C103.302 54.6 103.102 57.4 102.952 59.7C102.802 62 102.652 63.825 102.502 65.175C102.402 66.525 102.227 67.45 101.977 67.95L102.577 74.25L102.277 75.45C102.427 75.85 102.577 76.25 102.727 76.65C102.927 77 103.077 77.3 103.177 77.55C103.377 77.95 103.502 78.225 103.552 78.375C103.552 78.625 103.352 78.9 102.952 79.2C102.602 79.5 102.152 79.8 101.602 80.1C101.052 80.4 100.452 80.7 99.8023 81C99.1523 81.25 98.5523 81.475 98.0023 81.675C97.5523 81.625 97.2023 81.55 96.9523 81.45C96.7523 81.35 96.5773 81.2 96.4273 81C96.2773 80.8 96.1273 80.525 95.9773 80.175C95.8773 79.825 95.6773 79.375 95.3773 78.825C94.8773 78.625 94.2023 78.575 93.3523 78.675C92.5023 78.725 91.8023 79 91.2523 79.5C91.0523 80.05 90.8523 80.425 90.6523 80.625C90.5023 80.825 90.3273 81 90.1273 81.15C89.9773 81.25 89.7773 81.35 89.5273 81.45C89.2773 81.55 88.9773 81.75 88.6273 82.05C87.3273 82.15 86.2523 82.2 85.4023 82.2C84.6023 82.2 83.8773 82.15 83.2273 82.05C82.6273 81.9 82.0523 81.725 81.5023 81.525C80.9523 81.275 80.3273 80.95 79.6273 80.55C78.5773 80.4 77.6773 80.175 76.9273 79.875C76.2273 79.575 75.6273 79.25 75.1273 78.9C74.6773 78.5 74.2773 78.1 73.9273 77.7C73.5773 77.25 73.2523 76.85 72.9523 76.5L69.7273 69.3L70.2523 63.075C70.6523 62.825 70.9523 62.65 71.1523 62.55C71.4023 62.45 71.6023 62.35 71.7523 62.25C71.9023 62.15 72.0273 62.025 72.1273 61.875C72.2773 61.675 72.4523 61.35 72.6523 60.9C72.8023 60.85 72.9023 60.7 72.9523 60.45C73.0523 60.2 73.0773 59.925 73.0273 59.625C73.0273 59.325 72.9773 59.025 72.8773 58.725C72.7773 58.425 72.6273 58.2 72.4273 58.05L74.9773 54.15C75.1273 54.15 75.4023 54.025 75.8023 53.775C76.2023 53.475 76.6773 53.15 77.2273 52.8C77.7773 52.4 78.3773 52.025 79.0273 51.675C79.7273 51.325 80.4523 51.075 81.2023 50.925C82.6023 50.525 83.6773 50.325 84.4273 50.325C85.1773 50.275 85.6273 50.225 85.7773 50.175C86.0773 50.375 86.4273 50.525 86.8273 50.625C87.2273 50.725 87.6023 50.825 87.9523 50.925C88.3523 50.975 88.6773 51.025 88.9273 51.075C89.2273 51.075 89.4023 51.075 89.4523 51.075C89.5023 51.075 89.5773 51.225 89.6773 51.525C89.7773 51.825 89.9023 52.2 90.0523 52.65C90.2023 53.1 90.4023 53.55 90.6523 54C90.9023 54.45 91.2023 54.825 91.5523 55.125L92.9023 55.575L94.1023 55.125L94.4023 51.45L94.0273 48.45C94.2773 47.8 94.4273 47.25 94.4773 46.8C94.5773 46.3 94.6023 45.8 94.5523 45.3C94.5523 44.8 94.5273 44.3 94.4773 43.8C94.4273 43.25 94.4023 42.625 94.4023 41.925C95.1023 41.125 95.5023 40.35 95.6023 39.6C95.7523 38.85 95.4023 38.075 94.5523 37.275L94.4773 34.05L96.5023 30.6L98.3023 30.3ZM90.5773 76.95L92.7523 74.475C92.6023 74.275 92.6523 73.9 92.9023 73.35C93.1523 72.8 93.2273 72.175 93.1273 71.475C93.0773 71.125 93.0523 70.35 93.0523 69.15C93.1023 67.95 93.1523 66.7 93.2023 65.4C93.2523 64.1 93.3023 62.95 93.3523 61.95C93.4023 60.9 92.9273 59.85 91.9273 58.8L87.2773 56.85L82.9273 58.05L80.9023 60.3C80.4023 61.1 80.0023 61.825 79.7023 62.475C79.4523 63.125 79.2773 63.8 79.1773 64.5C79.0773 65.15 79.0523 65.825 79.1023 66.525C79.1523 67.225 79.2523 68 79.4023 68.85C79.3023 69.85 79.4523 70.65 79.8523 71.25C80.2523 71.85 80.8523 72.35 81.6523 72.75L84.3523 75.675L86.6023 76.725C86.9523 76.875 87.2273 77.025 87.4273 77.175C87.6773 77.275 87.9023 77.35 88.1023 77.4C88.3523 77.4 88.6523 77.375 89.0023 77.325C89.4023 77.275 89.9273 77.15 90.5773 76.95Z" fill="#40BE54"/>
<path d="M14.4 50.25L14.475 50.175L14.925 49.95C15.375 49.75 15.8 49.65 16.2 49.65C17.2 49.5 17.9 49.05 18.3 48.3L24.6 48.375C24.95 48.575 25.4 48.75 25.95 48.9C26.5 49 26.825 49.1 26.925 49.2C27.175 49.3 27.35 49.45 27.45 49.65C27.55 49.8 27.875 49.975 28.425 50.175C28.425 51.175 28.575 52.475 28.875 54.075C29.225 55.675 29.8 57.275 30.6 58.875C30.35 58.625 30.3 58.7 30.45 59.1C30.6 59.45 30.85 59.975 31.2 60.675C31.55 61.375 31.95 62.175 32.4 63.075C32.9 63.925 33.375 64.725 33.825 65.475C34.275 66.225 34.65 66.875 34.95 67.425C35.25 67.925 35.4 68.15 35.4 68.1C36.35 69.95 37.025 72.175 37.425 74.775C37.725 74.875 38.45 73.475 39.6 70.575C40.15 69.225 40.625 68.075 41.025 67.125C41.425 66.125 41.75 65.375 42 64.875C41.65 64.225 41.325 63.55 41.025 62.85C40.725 62.15 40.375 61.8 39.975 61.8V61.125C39.975 60.925 39.975 60.775 39.975 60.675C40.025 60.525 40.05 60.4 40.05 60.3C40.05 60.05 39.875 59.425 39.525 58.425C39.375 57.775 39.4 57.1 39.6 56.4C39.8 55.7 39.875 55.15 39.825 54.75C39.475 54.2 39.15 53.625 38.85 53.025C38.6 52.375 38.15 51.8 37.5 51.3C37.15 51 37.05 50.45 37.2 49.65C37.25 49.15 37.325 48.825 37.425 48.675C37.475 48.575 37.5 48.475 37.5 48.375L39.825 47.325C40.025 47.375 40.225 47.4 40.425 47.4C40.625 47.35 40.825 47.3 41.025 47.25C41.375 47.15 41.7 47.05 42 46.95C42.3 46.8 42.575 46.525 42.825 46.125C43.375 46.375 43.925 46.575 44.475 46.725C45.075 46.825 45.4 46.925 45.45 47.025C45.5 47.225 45.975 47.375 46.875 47.475C47.125 48.475 47.5 49.65 48 51C48.5 52.3 48.925 53.525 49.275 54.675C49.675 55.775 49.825 56.975 49.725 58.275C49.675 59.575 49.625 60.65 49.575 61.5C49.925 61.7 50.25 61.875 50.55 62.025C50.85 62.175 51.075 62.5 51.225 63C51.325 63.25 51.45 63.6 51.6 64.05C51.75 64.45 51.825 64.75 51.825 64.95C51.825 65.1 51.75 65.4 51.6 65.85C51.45 66.25 51.3 66.675 51.15 67.125C50.45 67.025 50.45 67.65 51.15 69C51.65 70.45 52.175 71.525 52.725 72.225L54.525 70.575L57.9 63.075L59.925 57.525L62.25 53.025L64.8 49.95H67.725L69 51.375L68.925 53.1L67.2 56.25L63.45 62.925C62.4 63.275 61.7 63.85 61.35 64.65C61 65.45 61 66.2 61.35 66.9L57.9 73.575L57.375 77.4V78.75L54.525 80.25H52.725L49.65 78.3L48.6 76.275C48.4 76.125 48.2 75.975 48 75.825C47.85 75.675 47.7 75.525 47.55 75.375C47.3 75.125 47.05 74.85 46.8 74.55C46.55 74.2 46.45 73.85 46.5 73.5C46.6 72.8 46.6 72.35 46.5 72.15C46.45 71.95 46.375 71.975 46.275 72.225C45.775 72.975 45.175 73.625 44.475 74.175C43.825 74.725 43.175 75.225 42.525 75.675C41.875 76.125 41.3 76.525 40.8 76.875C40.3 77.175 39.975 77.475 39.825 77.775L39.3 78.825L37.575 81.375L31.65 81.525L30.45 82.05L27.225 80.175C27.075 79.625 26.775 78.975 26.325 78.225C25.875 77.475 25.525 76.6 25.275 75.6C24.725 73.1 24.35 71.375 24.15 70.425C24 69.425 23.775 68.875 23.475 68.775C23.275 68.675 23.1 68.5 22.95 68.25C22.85 67.95 22.6 67.625 22.2 67.275C22.2 66.825 22.2 66.45 22.2 66.15C22.25 65.8 22.225 65.525 22.125 65.325C22.025 65.075 21.825 64.875 21.525 64.725C21.225 64.575 20.775 64.475 20.175 64.425C19.825 63.775 19.375 62.875 18.825 61.725C18.325 60.525 17.8 59.325 17.25 58.125C16.75 56.925 16.25 55.85 15.75 54.9C15.25 53.9 14.85 53.275 14.55 53.025C14.45 52.975 14.375 52.925 14.325 52.875C14.275 52.825 14.2 52.775 14.1 52.725L14.4 50.25Z" fill="#DCD529"/>
</svg>
